<?xml version="1.0" encoding="utf-8"?>
<!-- Svg Vector Icons : http://www.onlinewebfonts.com/icon -->
<!DOCTYPE svg PUBLIC "-//W3C//DTD SVG 1.1//EN" "http://www.w3.org/Graphics/SVG/1.1/DTD/svg11.dtd">
<svg version="1.1" xmlns="http://www.w3.org/2000/svg" xmlns:xlink="http://www.w3.org/1999/xlink" x="0px" y="0px" viewBox="0 0 1000 1000" enable-background="new 0 0 1000 1000" xml:space="preserve">
<metadata> Svg Vector Icons : http://www.onlinewebfonts.com/icon </metadata>
<g><path d="M500,990c-251.9,0-456.2-82.2-456.2-183.7l0,0V702.9c0,101.5,204.3,164.6,456.2,164.6c251.9,0,456.2-63.1,456.2-164.6v103.4l0,0C956.2,907.8,751.9,990,500,990L500,990z M500,806.3c-251.9,0-456.2-82.3-456.2-183.8V519.1c0,101.5,204.3,164.6,456.2,164.6c251.9,0,456.2-63.1,456.2-164.6v103.4C956.2,724,751.9,806.3,500,806.3L500,806.3z M500,622.5c-251.9,0-456.2-82.3-456.2-183.8V335.4C43.8,436.9,248.1,500,500,500c251.9,0,456.2-63.1,456.2-164.6v103.4C956.2,540.2,751.9,622.5,500,622.5L500,622.5z M500,438.8c-251.9,0-456.2-82.3-456.2-183.8v-61.3C43.8,92.3,248.1,10,500,10c251.9,0,456.2,82.3,456.2,183.8V255C956.2,356.5,751.9,438.8,500,438.8L500,438.8z"/></g>
</svg>